PathFileType	4	(X/Y/Z)	C:/Users/beibeiliu/ov580/test_trc/User1\sequence.18_training_dense_left.trc
DataRate	CameraRate	NumFrames	NumMarkers	Units	OrigDataRate	OrigDataStartFrame	OrigNumFrames
120	120	8	19	mm	120	72	286
Frame#	Time	ThumbCMC			ThumbMCP			ThumbIP			ThumbTip			IndexMCP			IndexPIP			IndexTip			MiddleMCP			MiddlePIP			MiddleTip			RingMCP			RingPIP			RingTip			PinkyMCP			PinkyPIP			PinkyTip			BackHand1			BackHand2			BackHand3	
		X0	Y0	Z0	X1	Y1	Z1	X2	Y2	Z2	X3	Y3	Z3	X4	Y4	Z4	X5	Y5	Z5	X6	Y6	Z6	X7	Y7	Z7	X8	Y8	Z8	X9	Y9	Z9	X10	Y10	Z10	X11	Y11	Z11	X12	Y12	Z12	X13	Y13	Z13	X14	Y14	Z14	X15	Y15	Z15	X16	Y16	Z16	X17	Y17	Z17	X18	Y18	Z18	
71	0.591667	-204.147	60.9533	28.318	-185.595	82.5801	2.9278	-166.648	71.9357	-21.3331	-142.422	49.3797	-24.4077	-195.046	43.3561	-53.4582	-170.252	62.9594	-59.3873	-169.93	68.7847	-23.3614	-182.96	25.7221	-57.8604	-156.896	48.7082	-61.7391	-157.737	53.4526	-20.2253	-162.739	13.0066	-50.6615	-139.699	33.0769	-52.8521	-138.799	42.2762	-15.4456	-151.109	-3.98624	-29.8266	-133.697	21.1854	-38.7807	-135.174	40.1894	-9.65384	-188.092	-7.20869	5.48008	-192.361	-7.72134	41.1621	-214.099	21.8828	19.9555	
72	0.6	-205.005	59.1936	32.6538	-187.981	79.408	1.57543	-168.25	73.5647	-23.9598	-146.13	48.4277	-23.4357	-196.292	40.2661	-54.3237	-170.796	58.5111	-61.6843	-169.888	69.507	-28.0197	-178.841	22.7986	-59.8656	-153.211	45.9118	-58.9011	-156.039	50.453	-21.75	-160.714	9.82768	-50.4153	-138.575	35.9469	-51.7127	-140.307	44.9207	-17.1456	-151.37	-1.27867	-30.8924	-132.224	21.0972	-39.6576	-130.352	40.5289	-10.4192	-185.832	-11.3682	8.40098	-190.955	-9.42923	44.2313	-210.962	16.0026	22.0956	
73	0.608333	-204.88	54.4876	32.5824	-189.942	72.8671	-0.663074	-168.202	66.7172	-25.3119	-143.633	49.6012	-25.5036	-198.696	38.0307	-52.6824	-174.097	59.3789	-63.0773	-171.239	65.5616	-25.6695	-181.184	21.5627	-58.0189	-155.739	42.8141	-62.5673	-157.366	48.5091	-20.3546	-162.831	8.0529	-49.3158	-139.693	35.7077	-51.3152	-139.434	42.4031	-17.4587	-147.48	-1.68113	-34.3158	-129.158	20.8956	-39.1993	-135.345	38.7966	-10.1082	-185.363	-10.0118	6.04529	-184.825	-14.1747	39.863	-209.212	12.6138	20.0813	
74	0.616667	-203.784	49.2392	30.9242	-190.944	73.5444	-1.53979	-168.75	64.3982	-25.9114	-143.245	48.9461	-28.3171	-197.622	33.7579	-52.7641	-173.601	53.6269	-62.5936	-173.153	65.7404	-28.4127	-179.797	18.2204	-60.0103	-156.032	40.9664	-61.929	-157.314	50.3719	-24.1992	-162.91	5.52426	-48.1832	-136.684	32.7247	-52.0034	-137.275	41.0002	-23.1351	-144.486	-6.12237	-32.3036	-132.392	17.4926	-40.7062	-134.297	37.2971	-13.3081	-178.622	-14.2552	10.674	-186.416	-13.8037	43.3934	-208.684	10.1847	22.1041	
75	0.625	-205.27	49.1078	29.7526	-189.933	68.7607	-1.82259	-171.278	64.6869	-25.6178	-143.682	47.5593	-29.039	-196.402	27.4044	-52.9511	-172.884	50.9756	-61.0502	-174.44	63.651	-29.4639	-180.122	13.6792	-58.3027	-155.593	37.8261	-62.9503	-158.149	45.5165	-22.0646	-157.419	1.75397	-49.0959	-139.874	30.4398	-54.4809	-137.876	38.8982	-18.2472	-145.094	-7.15662	-29.5271	-129.09	15.6046	-41.7611	-134.326	37.154	-14.6679	-180.19	-14.352	6.42891	-182.999	-14.928	45.8676	-206.072	4.80055	25.4215	
76	0.633333	-204.808	46.2186	27.3102	-190.371	67.2888	-2.40845	-169.842	58.1214	-25.0397	-142.245	44.6895	-31.2078	-200.493	26.4368	-51.3467	-177.084	49.1703	-64.6894	-172.863	58.2918	-30.7089	-177.99	10.485	-59.5883	-154.461	35.1426	-63.1155	-156.728	45.3054	-25.6042	-159.594	0.0681969	-48.63	-135.538	27.2032	-53.1689	-135.709	36.3039	-22.707	-141.084	-10.5657	-31.6555	-128.716	13.6264	-42.5676	-131.747	36.9169	-13.1156	-175.809	-16.9873	11.9493	-176.887	-20.8882	42.7218	-204.16	0.634482	21.6295	
77	0.641667	-200.885	41.0282	30.4899	-189.558	61.8194	-2.30308	-169.332	58.9467	-26.5249	-143.419	43.9969	-30.5272	-196.71	20.5211	-51.4102	-175.622	44.8328	-64.76	-173.364	56.3761	-29.4283	-178.821	7.66969	-57.916	-157.675	32.8996	-64.9925	-155.074	40.5484	-25.9411	-155.868	-2.49327	-49.3842	-135.298	24.8951	-52.7711	-136.833	34.7577	-20.6014	-141.264	-10.5436	-32.8799	-128.868	14.9963	-41.826	-132.424	33.2607	-17.836	-173.69	-22.4652	10.4961	-173.723	-20.6205	45.2825	-201.359	-2.31156	22.8345	
78	0.65	-202.103	41.7974	31.0911	-189.194	58.8277	-4.40128	-169.426	54.6453	-25.6127	-144.589	38.7927	-27.8113	-195.284	19.261	-52.848	-177.127	41.3002	-66.2381	-172.733	54.3291	-33.1508	-174.817	1.34693	-55.1889	-155.067	32.9154	-62.5639	-156.933	41.0127	-26.3529	-156.214	-6.44062	-47.1725	-134.211	21.8577	-54.602	-135.1	33.3704	-25.1707	-139.537	-12.9654	-28.5156	-127.493	14.8259	-41.0529	-130.032	33.4754	-16.5904	-171.72	-20.2539	13.1931	-171.753	-20.9745	44.1285	-200.402	-0.695647	24.6281	
